PathFileType  4	(X/Y/Z) C:\Users\wagnerel85475\Documents\Thesis\opencap-core\Data\3375ffbc-daeb-4a43-b4f7-ac9899cd4c71\MarkerData\PreAugmentation
DataRate	CameraRate	NumFrames	NumMarkers	Units	OrigDataRate	OrigDataStartFrame	OrigNumFrames
60.0	60.0	18	20	m	60.0	106	282
Frame#	Time	Neck			RShoulder			RElbow			RWrist			LShoulder			LElbow			LWrist			midHip			RHip			RKnee			RAnkle			LHip			LKnee			LAnkle			LBigToe			LSmallToe			LHeel			RBigToe			RSmallToe			RHeel			
		X1	Y1	Z1	X2	Y2	Z2	X3	Y3	Z3	X4	Y4	Z4	X5	Y5	Z5	X6	Y6	Z6	X7	Y7	Z7	X8	Y8	Z8	X9	Y9	Z9	X10	Y10	Z10	X11	Y11	Z11	X12	Y12	Z12	X13	Y13	Z13	X14	Y14	Z14	X15	Y15	Z15	X16	Y16	Z16	X17	Y17	Z17	X18	Y18	Z18	X19	Y19	Z19	X20	Y20	Z20	

106	1.7500000	0.7883300	0.6664800	-0.1379900	0.7728400	0.6617300	0.0382000	0.6431500	0.3912600	0.1816900	0.7279800	0.1151600	0.2062200	0.8031600	0.6761600	-0.3143000	0.6821100	0.3690800	-0.4412700	0.7162200	0.0759200	-0.4964500	0.3780900	0.3444500	-0.1608100	0.3689600	0.3403000	-0.0322200	0.8427900	0.3169500	-0.0133000	0.6865900	-0.1987000	-0.0030400	0.3781300	0.3466900	-0.2810000	0.8196100	0.3252900	-0.3008900	0.6886600	-0.2004500	-0.3182200	0.9030200	-0.2176200	-0.3440800	0.8454000	-0.2177600	-0.3821500	0.6128200	-0.2521300	-0.3177000	0.8913900	-0.2244600	0.0400600	0.8435400	-0.2191600	0.0728800	0.6275500	-0.2378500	-0.0242500
107	1.7666667	0.8154300	0.6786100	-0.1340300	0.7815600	0.6603300	0.0345800	0.6609200	0.3947900	0.1805900	0.7291500	0.1115800	0.2061400	0.8231400	0.6904500	-0.3128800	0.7084400	0.3668600	-0.4355400	0.7164300	0.0650800	-0.4957600	0.3680800	0.3503100	-0.1641800	0.3792600	0.3469400	-0.0364300	0.8579200	0.3250500	-0.0212200	0.6865100	-0.1985500	-0.0032000	0.3606100	0.3629800	-0.2893400	0.8268600	0.3268700	-0.2970900	0.6887100	-0.1999600	-0.3182200	0.9030600	-0.2245700	-0.3445500	0.8455700	-0.2205000	-0.3828500	0.6214900	-0.2453600	-0.3125900	0.8990500	-0.2191900	0.0421900	0.8436600	-0.2193100	0.0727400	0.6273000	-0.2377800	-0.0243000
108	1.7833333	0.8238000	0.6796400	-0.1383400	0.7997500	0.6617400	0.0324700	0.6820400	0.3966200	0.1865700	0.7397100	0.1070600	0.2083100	0.8241500	0.6907300	-0.3129400	0.7099500	0.3606700	-0.4371500	0.7338500	0.0591700	-0.4867000	0.3992400	0.3687100	-0.1611300	0.3995600	0.3632400	-0.0377100	0.8490300	0.3200300	-0.0241500	0.6865000	-0.1954100	-0.0038000	0.4011100	0.3747300	-0.2891800	0.8284700	0.3238000	-0.2966800	0.6889000	-0.2002300	-0.3180800	0.9030900	-0.2277100	-0.3447200	0.8535900	-0.2215300	-0.3797000	0.6216300	-0.2453800	-0.3130100	0.8991500	-0.2187600	0.0353300	0.8433700	-0.2157200	0.0734000	0.6276400	-0.2353500	-0.0249700
109	1.8000000	0.8328300	0.6894100	-0.1345100	0.8170600	0.6691900	0.0322700	0.6919700	0.4019700	0.1902900	0.7565000	0.1129300	0.2083100	0.8412300	0.6976800	-0.3125100	0.7262400	0.3743200	-0.4276800	0.7511900	0.0677700	-0.4855500	0.4001800	0.3724000	-0.1607100	0.4002700	0.3673700	-0.0374300	0.8489600	0.3202900	-0.0241400	0.6952500	-0.1960800	-0.0087100	0.4147400	0.3784000	-0.2848000	0.8274300	0.3233800	-0.2968300	0.6888000	-0.1997700	-0.3180700	0.9023300	-0.2215000	-0.3449700	0.8372000	-0.2236700	-0.3792200	0.6215400	-0.2455100	-0.3124100	0.8988800	-0.2194400	0.0422200	0.8435000	-0.2195100	0.0727500	0.6371300	-0.2362500	-0.0299700
110	1.8166667	0.8506700	0.6965400	-0.1421600	0.8239000	0.6783600	0.0282200	0.7210800	0.4045300	0.1912200	0.7867700	0.1142600	0.2165400	0.8516200	0.7022000	-0.3083800	0.7356100	0.3731000	-0.4239900	0.7514400	0.0678600	-0.4856700	0.3914300	0.3832000	-0.1641000	0.3954600	0.3795100	-0.0444200	0.8662300	0.3240700	-0.0250800	0.7051300	-0.1898000	-0.0061200	0.4055200	0.3890900	-0.2886900	0.8286400	0.3270900	-0.2971300	0.6876800	-0.1928000	-0.3167900	0.9023300	-0.2211600	-0.3446600	0.8369100	-0.2209300	-0.3786600	0.6305800	-0.2348600	-0.3091300	0.8998900	-0.2186300	0.0423500	0.8437200	-0.2194000	0.0728100	0.6373500	-0.2363300	-0.0299800
111	1.8333333	0.8586500	0.7000300	-0.1389600	0.8421600	0.6844200	0.0273700	0.7208300	0.4078300	0.1918900	0.7970300	0.1171400	0.2197900	0.8653200	0.6992100	-0.3085300	0.7527800	0.3841200	-0.4224000	0.7605600	0.0780600	-0.4891000	0.3935800	0.3879400	-0.1637700	0.3978500	0.3846300	-0.0443400	0.8664600	0.3202500	-0.0253400	0.7045000	-0.1929000	-0.0054900	0.4178500	0.3963100	-0.2844700	0.8361300	0.3184100	-0.2935700	0.6876200	-0.1925800	-0.3168500	0.9025400	-0.2213800	-0.3450800	0.8456700	-0.2206000	-0.3826700	0.6212300	-0.2379400	-0.3124900	0.9065300	-0.2163600	0.0381000	0.8437200	-0.2192600	0.0726900	0.6370100	-0.2363000	-0.0299000
112	1.8500000	0.8673400	0.7040000	-0.1429000	0.8602700	0.6942200	0.0336400	0.7390800	0.4191700	0.1899500	0.8067500	0.1268100	0.2222500	0.8998900	0.7081300	-0.3003800	0.7617400	0.3865000	-0.4183900	0.7686200	0.0911200	-0.4845200	0.3911900	0.3920000	-0.1641700	0.3960900	0.3894400	-0.0441200	0.8747100	0.3220800	-0.0296400	0.6951100	-0.1923200	-0.0080400	0.4167600	0.4046400	-0.2763000	0.8462700	0.3172400	-0.2901100	0.6875900	-0.1928300	-0.3168300	0.9032700	-0.2241900	-0.3440400	0.8456500	-0.2176900	-0.3820900	0.6213700	-0.2380200	-0.3130300	0.9079900	-0.2197000	0.0375100	0.8515000	-0.2164500	0.0686100	0.6366700	-0.2319700	-0.0292500
113	1.8666667	0.8757600	0.7095600	-0.1391400	0.8700300	0.7030200	0.0373700	0.7471300	0.4276300	0.1857300	0.8143500	0.1401000	0.2189600	0.8989000	0.7120200	-0.3003700	0.7706300	0.3996400	-0.4217000	0.7767800	0.1039400	-0.4811800	0.4183100	0.4087400	-0.1553000	0.3894700	0.3921900	-0.0391700	0.8829600	0.3210900	-0.0258900	0.6949200	-0.1923800	-0.0080900	0.4280500	0.4247400	-0.2761900	0.8548800	0.3161600	-0.2951100	0.6878600	-0.1962500	-0.3175500	0.9107500	-0.2218200	-0.3407400	0.8539500	-0.2208100	-0.3795200	0.6121900	-0.2404900	-0.3179600	0.9070400	-0.2204900	0.0374100	0.8512400	-0.2165800	0.0685600	0.6276500	-0.2352500	-0.0249700
114	1.8833333	0.8758400	0.7169900	-0.1391400	0.8769900	0.7150200	0.0330300	0.7560700	0.4372800	0.1809300	0.8237700	0.1497000	0.2213900	0.9022600	0.7228800	-0.2999700	0.7795800	0.4123900	-0.4259600	0.7854900	0.1173100	-0.4841800	0.4276000	0.4212300	-0.1520600	0.4273800	0.4112000	-0.0495600	0.8834900	0.3210600	-0.0260200	0.6868200	-0.1983600	-0.0032000	0.4435900	0.4413700	-0.2766600	0.8573200	0.3132600	-0.2954600	0.6876400	-0.1965500	-0.3175500	0.9107400	-0.2215800	-0.3404700	0.8533500	-0.2183400	-0.3789700	0.6028500	-0.2448200	-0.3210100	0.9002000	-0.2255500	0.0422700	0.8515400	-0.2164000	0.0687200	0.6276600	-0.2377500	-0.0243300
115	1.9000000	0.8837500	0.7319400	-0.1432700	0.8862100	0.7296000	0.0286700	0.7741500	0.4536700	0.1786500	0.8240000	0.1541200	0.2222900	0.9197100	0.7493100	-0.2997500	0.7875500	0.4359700	-0.4213300	0.8043600	0.1232900	-0.4909400	0.4249400	0.4476400	-0.1606400	0.4294100	0.4400600	-0.0579600	0.8831800	0.3211400	-0.0258700	0.6865700	-0.1985000	-0.0032000	0.4280600	0.4595700	-0.2809500	0.8549300	0.3160500	-0.2951600	0.6871200	-0.1927900	-0.3169000	0.9032000	-0.2246500	-0.3444000	0.8455300	-0.2206400	-0.3826700	0.6021500	-0.2449500	-0.3127100	0.9067700	-0.2231500	0.0380400	0.8510700	-0.2192500	0.0692400	0.6273400	-0.2378100	-0.0242700
116	1.9166667	0.8929700	0.7509400	-0.1392900	0.8943100	0.7377700	0.0317200	0.7815500	0.4677400	0.1744600	0.8316900	0.1633500	0.2176100	0.9184900	0.7604500	-0.3001300	0.7961800	0.4416100	-0.4254500	0.8119000	0.1398300	-0.4862900	0.4224600	0.4586900	-0.1609300	0.4253700	0.4543200	-0.0584000	0.8908100	0.3199400	-0.0296700	0.6866900	-0.1985700	-0.0031300	0.4469300	0.4701600	-0.2807300	0.8489400	0.3108600	-0.2994100	0.6870100	-0.1928800	-0.3168600	0.9028100	-0.2244900	-0.3440600	0.8369400	-0.2244400	-0.3793100	0.6023200	-0.2409200	-0.3138200	0.9077500	-0.2224300	0.0382100	0.8512900	-0.2192000	0.0693300	0.6274100	-0.2380000	-0.0242100
117	1.9333333	0.8928100	0.7653500	-0.1395500	0.8941600	0.7535200	0.0325200	0.7813700	0.4789200	0.1751500	0.8320300	0.1711400	0.2180500	0.9243600	0.7728700	-0.3041800	0.7973500	0.4492500	-0.4330900	0.8218200	0.1533200	-0.4893200	0.4336000	0.4681600	-0.1567500	0.4479600	0.4660300	-0.0592900	0.8830800	0.3180900	-0.0256100	0.6863100	-0.1986800	-0.0031000	0.4479100	0.4757500	-0.2803900	0.8475100	0.3100900	-0.2994500	0.6869700	-0.1925900	-0.3168900	0.9028000	-0.2246700	-0.3444100	0.8370000	-0.2239300	-0.3793000	0.6020800	-0.2408600	-0.3133200	0.9067600	-0.2231000	0.0380500	0.8509400	-0.2193000	0.0692500	0.6182900	-0.2412700	-0.0199000
118	1.9500000	0.8923600	0.7687700	-0.1396500	0.8933700	0.7645500	0.0326400	0.7740600	0.4895300	0.1799800	0.8398200	0.1944900	0.2132800	0.9325400	0.7802300	-0.3080100	0.8046200	0.4793200	-0.4295900	0.8292700	0.1774400	-0.4930100	0.4541500	0.4856600	-0.1573800	0.4676600	0.4774300	-0.0519300	0.8907900	0.3198000	-0.0297200	0.6863600	-0.1987100	-0.0030700	0.4490200	0.4984100	-0.2806400	0.8565200	0.3087600	-0.2951300	0.6873800	-0.1964100	-0.3175000	0.9028200	-0.2278200	-0.3446000	0.8451900	-0.2247000	-0.3761900	0.6021300	-0.2448200	-0.3131900	0.8992100	-0.2255800	0.0352800	0.8433200	-0.2251300	0.0740900	0.6183900	-0.2439500	-0.0193200
119	1.9666667	0.9008000	0.7769700	-0.1360900	0.9027600	0.7832100	0.0359200	0.7910000	0.5128500	0.1781800	0.8565000	0.2163600	0.2114800	0.9322800	0.7874000	-0.3077400	0.8132000	0.4990600	-0.4327900	0.8292000	0.1908200	-0.4941300	0.4525700	0.5038900	-0.1573700	0.4691800	0.4933300	-0.0519200	0.8908300	0.3162600	-0.0300000	0.6860800	-0.1987000	-0.0031400	0.4572500	0.5165000	-0.2768900	0.8553500	0.3086600	-0.2952600	0.6869600	-0.1927800	-0.3169100	0.9027600	-0.2248400	-0.3456500	0.8454100	-0.2242800	-0.3762500	0.5927600	-0.2482300	-0.3165600	0.8990300	-0.2261300	0.0421400	0.8430100	-0.2251900	0.0740600	0.6180100	-0.2412700	-0.0199300
120	1.9833333	0.9165300	0.8027500	-0.1363800	0.9020200	0.8044300	0.0355100	0.7841100	0.5226500	0.1821200	0.8491100	0.2254900	0.2162400	0.9287200	0.7980400	-0.3089800	0.8221000	0.5122200	-0.4361900	0.8366700	0.2032900	-0.4896900	0.4617700	0.5214100	-0.1537000	0.4887100	0.5176700	-0.0441100	0.8834900	0.3172000	-0.0265200	0.6863600	-0.1985900	-0.0031300	0.4435000	0.5198500	-0.2727800	0.8475100	0.3106300	-0.2986100	0.6872700	-0.1964500	-0.3175500	0.9027000	-0.2246000	-0.3452800	0.8453700	-0.2246700	-0.3762500	0.5927800	-0.2482900	-0.3171400	0.8915100	-0.2286400	0.0393800	0.8433400	-0.2222200	0.0735300	0.6182400	-0.2368700	-0.0193900
121	2.0000000	0.9093800	0.8240200	-0.1324100	0.9024500	0.8199800	0.0364600	0.7936500	0.5349200	0.1851800	0.8576000	0.2433500	0.2131500	0.9372600	0.8302300	-0.3048000	0.8216800	0.5262600	-0.4362800	0.8370800	0.2254000	-0.4892100	0.4626900	0.5288600	-0.1534200	0.5005300	0.5304000	-0.0409100	0.8829500	0.3142500	-0.0256900	0.6862400	-0.1951500	-0.0024400	0.4719700	0.5334100	-0.2685000	0.8367300	0.3151700	-0.3019300	0.6873300	-0.1963200	-0.3175200	0.9026700	-0.2213500	-0.3450000	0.8371700	-0.2238700	-0.3792800	0.5927600	-0.2484500	-0.3165400	0.8904300	-0.2321000	0.0399100	0.8428500	-0.2253500	0.0741400	0.6182300	-0.2394700	-0.0187400
122	2.0166667	0.9174200	0.8353100	-0.1288100	0.9020000	0.8302200	0.0360800	0.7927500	0.5650100	0.1858400	0.8579700	0.2705600	0.2194500	0.9296200	0.8358000	-0.3087600	0.8206500	0.5511900	-0.4369800	0.8523000	0.2466900	-0.4898000	0.4819300	0.5363300	-0.1460400	0.5183400	0.5414900	-0.0415400	0.8755100	0.3123000	-0.0217600	0.6863500	-0.1987300	-0.0030400	0.5008300	0.5431900	-0.2563200	0.8298500	0.3100500	-0.3062900	0.6875600	-0.1965400	-0.3175300	0.9026700	-0.2211200	-0.3446600	0.8373100	-0.2242800	-0.3792600	0.6023300	-0.2450400	-0.3131800	0.8914500	-0.2286200	0.0394000	0.8431700	-0.2252600	0.0742200	0.6185300	-0.2394500	-0.0187600
123	2.0333333	0.9247100	0.8504800	-0.1327300	0.9024000	0.8446300	0.0364200	0.7849300	0.5737200	0.1903500	0.8579100	0.2849800	0.2200300	0.9273900	0.8541500	-0.3093300	0.8197800	0.5652800	-0.4370000	0.8524100	0.2607600	-0.4900100	0.4712500	0.5455300	-0.1499500	0.5109800	0.5479600	-0.0372100	0.8750100	0.3161500	-0.0209800	0.6863500	-0.1949700	-0.0024700	0.4896900	0.5596600	-0.2606800	0.8282100	0.3166000	-0.3137700	0.6871800	-0.1927100	-0.3169800	0.9027800	-0.2212600	-0.3450300	0.8373000	-0.2238000	-0.3793200	0.6117900	-0.2415600	-0.3165800	0.8905800	-0.2292000	0.0392300	0.8429900	-0.2223000	0.0734500	0.6182400	-0.2392900	-0.0187500
